<?xml version="1.0" encoding="UTF-8" standalone="no"?>
<svg width="100%" height="100%" viewBox="0 0 2100 450" version="1.1" xmlns="http://www.w3.org/2000/svg" xmlnsXlink="http://www.w3.org/1999/xlink" xmlSpace="preserve" xmlnsSerif="http://www.serif.com/" style="fill-rule:evenodd;clip-rule:evenodd;stroke-linejoin:round;stroke-miterlimit:2;">
    <rect x="0" y="0" width="2100" height="450" style="fill:white;"/>
    <g transform="matrix(1.25429,0,0,1.25429,-277,-1070.28)">
        <path d="M255.784,1016.31C254.337,1025.71 246.243,1032.66 236.724,1032.66C179.945,1032.69 7.973,1032.69 7.973,1032.69L7.973,807.687L2107.97,807.687L2107.97,1032.69L1880.58,1032.69C1875.46,1032.69 1870.55,1034.72 1866.93,1038.35C1863.31,1041.97 1861.27,1046.88 1861.27,1052L1861.27,1090.59C1861.27,1093.48 1860.12,1096.25 1858.08,1098.3C1856.03,1100.34 1853.26,1101.49 1850.37,1101.49L1827.65,1101.49C1824.49,1101.49 1821.48,1100.11 1819.41,1097.72C1810.82,1087.79 1787.33,1060.65 1774.15,1045.42C1772.71,1043.75 1770.38,1043.15 1768.31,1043.92C1766.24,1044.7 1764.87,1046.67 1764.87,1048.88L1764.87,1090.59C1764.87,1096.61 1759.99,1101.49 1753.97,1101.49L1735.17,1101.49C1732.28,1101.49 1729.51,1100.34 1727.46,1098.3C1725.42,1096.25 1724.27,1093.48 1724.27,1090.59L1724.27,1052C1724.27,1046.88 1726.31,1041.97 1729.93,1038.35C1733.55,1034.72 1738.46,1032.69 1743.58,1032.69L1841.96,1032.69C1847.08,1032.69 1851.99,1030.66 1855.61,1027.03C1859.24,1023.41 1861.27,1018.5 1861.27,1013.38L1861.27,975.015C1861.27,972.064 1860.1,969.233 1858.01,967.146C1855.92,965.059 1853.09,963.887 1850.14,963.887L1831.8,963.887C1828.85,963.887 1826.02,965.059 1823.93,967.146C1821.84,969.233 1820.67,972.064 1820.67,975.015L1820.67,1017.34C1820.67,1019.56 1819.29,1021.54 1817.21,1022.3C1815.13,1023.07 1812.8,1022.46 1811.36,1020.77C1798.21,1005.35 1774.84,977.932 1766.2,967.796C1764.09,965.316 1760.99,963.887 1757.73,963.887L1735.4,963.887C1729.25,963.887 1724.27,968.869 1724.27,975.015L1724.27,1019.92C1724.27,1026.97 1718.55,1032.69 1711.5,1032.69C1705.54,1032.69 1700.55,1037.21 1699.97,1043.14C1698.3,1061.27 1691.99,1075.45 1681.07,1085.69C1668.14,1097.82 1649.8,1103.89 1626.07,1103.89C1602.34,1103.89 1584.04,1097.86 1571.17,1085.79C1563.16,1078.27 1557.64,1068.58 1554.62,1056.69C1553.17,1050.93 1554.47,1044.82 1558.12,1040.14C1561.78,1035.45 1567.39,1032.71 1573.33,1032.71C1579.65,1032.69 1586.09,1032.69 1590.67,1032.69C1594.21,1032.69 1597.07,1029.83 1597.07,1026.29C1597.07,1016.56 1599.54,1008.82 1604.47,1003.09C1609.4,997.357 1616.6,994.487 1626.07,994.487C1635.54,994.487 1642.77,997.357 1647.77,1003.09C1652.77,1008.82 1655.27,1016.56 1655.27,1026.29C1655.27,1029.83 1652.4,1032.69 1648.87,1032.69L1603.47,1032.69C1599.93,1032.69 1597.07,1035.55 1597.07,1039.09C1597.07,1048.82 1599.54,1056.56 1604.47,1062.29C1609.4,1068.02 1616.6,1070.89 1626.07,1070.89C1635.54,1070.89 1642.77,1068.02 1647.77,1062.29C1652.77,1056.56 1655.27,1048.82 1655.27,1039.09C1655.27,1037.39 1655.94,1035.76 1657.14,1034.56C1658.34,1033.36 1659.97,1032.69 1661.67,1032.69L1678.97,1032.69C1684.94,1032.69 1690.57,1029.94 1694.23,1025.23C1697.88,1020.52 1699.16,1014.38 1697.69,1008.6C1694.61,996.847 1689.08,987.207 1681.07,979.687C1668.14,967.554 1649.8,961.487 1626.07,961.487C1602.34,961.487 1584.04,967.52 1571.17,979.587C1560.49,989.607 1554.24,1003.51 1552.43,1021.29C1551.73,1027.75 1546.28,1032.66 1539.77,1032.66L1539.77,1032.69C1536.14,1032.69 1532.65,1034.13 1530.08,1036.7C1527.51,1039.27 1526.07,1042.76 1526.07,1046.39L1526.07,1090.59C1526.07,1093.48 1524.92,1096.25 1522.88,1098.3C1520.83,1100.34 1518.06,1101.49 1515.17,1101.49L1492.77,1101.49C1489.88,1101.49 1487.11,1100.34 1485.06,1098.3C1483.02,1096.25 1481.87,1093.48 1481.87,1090.59L1481.87,1052C1481.87,1041.34 1490.52,1032.69 1501.18,1032.69L1506.76,1032.69C1517.42,1032.69 1526.07,1024.04 1526.07,1013.38L1526.07,975.015C1526.07,968.869 1521.09,963.887 1514.94,963.887L1493,963.887C1486.85,963.887 1481.87,968.869 1481.87,975.015L1481.87,1013.38C1481.87,1024.04 1473.22,1032.69 1462.56,1032.69L1433.98,1032.69C1423.32,1032.69 1414.67,1041.34 1414.67,1052L1414.67,1090.59C1414.67,1093.48 1413.52,1096.25 1411.48,1098.3C1409.43,1100.34 1406.66,1101.49 1403.77,1101.49L1381.37,1101.49C1378.48,1101.49 1375.71,1100.34 1373.66,1098.3C1371.62,1096.25 1370.47,1093.48 1370.47,1090.59L1370.47,1052C1370.47,1041.34 1379.12,1032.69 1389.78,1032.69L1395.36,1032.69C1406.02,1032.69 1414.67,1024.04 1414.67,1013.38L1414.67,1009.91C1414.67,1003.93 1419.51,999.087 1425.49,999.087L1448.85,999.087C1454.83,999.087 1459.67,994.247 1459.67,988.267L1459.67,975.015C1459.67,968.869 1454.69,963.887 1448.54,963.887L1336.4,963.887C1330.25,963.887 1325.27,968.869 1325.27,975.015L1325.27,988.267C1325.27,991.137 1326.41,993.887 1328.44,995.917C1330.47,997.947 1333.22,999.087 1336.09,999.087L1359.65,999.087C1362.52,999.087 1365.27,1000.23 1367.3,1002.26C1369.33,1004.29 1370.47,1007.04 1370.47,1009.91L1370.47,1013.38C1370.47,1024.04 1361.82,1032.69 1351.16,1032.69L1335.17,1032.69C1328.87,1032.69 1322.96,1035.77 1319.35,1040.93C1315.74,1046.1 1314.87,1052.7 1317.03,1058.62C1320.51,1068.17 1324.34,1078.64 1327.33,1086.85C1328.55,1090.19 1328.06,1093.92 1326.02,1096.84C1323.98,1099.75 1320.64,1101.49 1317.09,1101.49L1293.99,1101.49C1289.17,1101.49 1284.92,1098.33 1283.54,1093.71C1282.78,1091.14 1281.95,1088.39 1281.3,1086.21C1280.57,1083.76 1278.32,1082.09 1275.77,1082.09L1236.17,1082.09C1233.62,1082.09 1231.37,1083.76 1230.64,1086.21C1229.99,1088.39 1229.16,1091.14 1228.4,1093.71C1227.02,1098.33 1222.77,1101.49 1217.95,1101.49L1196.46,1101.49C1192.9,1101.49 1189.56,1099.75 1187.52,1096.84C1185.48,1093.92 1184.99,1090.19 1186.21,1086.85C1190.7,1074.54 1197.06,1057.11 1201.34,1045.38C1204.12,1037.76 1211.37,1032.69 1219.48,1032.69L1232.28,1032.69C1240.79,1032.69 1248.3,1027.12 1250.77,1018.98C1251.97,1015.02 1253.24,1010.81 1254.33,1007.23C1254.66,1006.13 1255.69,1005.39 1256.84,1005.42C1257.99,1005.45 1258.97,1006.25 1259.24,1007.36C1260.14,1011.07 1261.2,1015.42 1262.19,1019.47C1262.96,1022.66 1262.23,1026.02 1260.2,1028.6C1258.18,1031.18 1255.08,1032.69 1251.8,1032.69L1251.79,1032.69C1248.72,1032.69 1246.01,1034.71 1245.13,1037.66C1244.44,1039.98 1243.61,1042.76 1242.88,1045.21C1242.46,1046.64 1242.73,1048.19 1243.62,1049.39C1244.51,1050.59 1245.92,1051.29 1247.41,1051.29L1268.51,1051.29C1269.06,1051.29 1269.59,1051.03 1269.92,1050.58C1270.26,1050.13 1270.36,1049.56 1270.2,1049.02C1270.2,1049 1270.19,1048.97 1270.18,1048.95C1269.06,1045.12 1269.8,1040.97 1272.2,1037.77C1274.59,1034.57 1278.35,1032.69 1282.35,1032.69C1288.11,1032.69 1293.51,1029.88 1296.81,1025.16C1300.11,1020.44 1300.9,1014.41 1298.93,1009C1294.09,995.757 1288.4,980.152 1285.14,971.201C1283.54,966.809 1279.36,963.887 1274.68,963.887L1238.86,963.887C1234.18,963.887 1230,966.809 1228.4,971.201C1224.16,982.824 1215.83,1005.66 1210.6,1020C1207.82,1027.62 1200.57,1032.69 1192.46,1032.69L1166.62,1032.69C1162.21,1032.69 1157.93,1034.2 1154.49,1036.97C1150.98,1039.83 1146.84,1042.13 1142.07,1043.89C1142.07,1043.89 1155.1,1068.43 1164.16,1085.47C1165.96,1088.85 1165.85,1092.92 1163.88,1096.2C1161.9,1099.48 1158.36,1101.49 1154.53,1101.49L1129.89,1101.49C1125.72,1101.49 1121.91,1099.11 1120.09,1095.35C1113.58,1081.96 1098.67,1051.29 1098.67,1051.29L1082.27,1051.29L1082.27,1090.59C1082.27,1093.48 1081.12,1096.25 1079.08,1098.3C1077.03,1100.34 1074.26,1101.49 1071.37,1101.49L1048.97,1101.49C1046.08,1101.49 1043.31,1100.34 1041.26,1098.3C1039.22,1096.25 1038.07,1093.48 1038.07,1090.59L1038.07,1052C1038.07,1041.34 1046.72,1032.69 1057.38,1032.69L1146.93,1032.69C1154.83,1032.69 1161.93,1027.88 1164.86,1020.53C1166.89,1015.46 1168.67,1009.9 1168.67,1006.09C1168.67,998.487 1166.9,991.457 1163.37,984.987C1159.84,978.52 1154.57,973.387 1147.57,969.587C1140.57,965.787 1132.14,963.887 1122.27,963.887L1049.2,963.887C1046.25,963.887 1043.42,965.059 1041.33,967.146C1039.24,969.233 1038.07,972.064 1038.07,975.015L1038.07,1013.38C1038.07,1024.04 1029.42,1032.69 1018.76,1032.69L1013.68,1032.69C1007.16,1032.69 1001.87,1037.98 1001.87,1044.5C1001.87,1045.29 1001.56,1046.05 1001,1046.61C1000.44,1047.18 999.676,1047.49 998.883,1047.49L946.972,1047.49C941.947,1047.49 937.873,1051.56 937.873,1056.59L937.873,1059.39C937.873,1061.8 938.832,1064.12 940.538,1065.83C942.245,1067.53 944.559,1068.49 946.972,1068.49L1004.97,1068.49C1007.39,1068.49 1009.7,1069.45 1011.41,1071.16C1013.11,1072.86 1014.07,1075.18 1014.07,1077.59L1014.07,1090.59C1014.07,1093.48 1012.92,1096.25 1010.88,1098.3C1008.83,1100.34 1006.06,1101.49 1003.17,1101.49L904.577,1101.49C901.685,1101.49 898.912,1100.34 896.867,1098.3C894.822,1096.25 893.673,1093.48 893.673,1090.59L893.673,1052C893.673,1041.34 902.32,1032.69 912.986,1032.69L988.029,1032.69C995.675,1032.69 1001.87,1026.49 1001.87,1018.85L1001.87,1018.84C1001.87,1018.06 1001.56,1017.31 1001.01,1016.75C1000.45,1016.2 999.702,1015.89 998.919,1015.89L946.972,1015.89C944.559,1015.89 942.245,1014.93 940.538,1013.22C938.832,1011.52 937.873,1009.2 937.873,1006.79L937.873,1005.99C937.873,1003.58 938.832,1001.26 940.538,999.557C942.245,997.847 944.559,996.887 946.972,996.887L1003.57,996.887C1005.99,996.887 1008.3,995.927 1010,994.217C1011.71,992.517 1012.67,990.197 1012.67,987.787L1012.67,975.015C1012.67,972.064 1011.5,969.233 1009.41,967.146C1007.33,965.059 1004.5,963.887 1001.55,963.887L904.801,963.887C898.655,963.887 893.673,968.869 893.673,975.015L893.673,1013.38C893.673,1018.5 891.638,1023.41 888.016,1027.03C884.394,1030.66 879.482,1032.69 874.36,1032.69L868.555,1032.69C867.017,1032.69 865.603,1033.53 864.874,1034.89L864.873,1034.89C861.14,1041.82 855.94,1047.26 849.273,1051.19C842.606,1055.12 835.006,1057.09 826.473,1057.09L800.975,1057.09C798.985,1057.09 797.077,1057.88 795.67,1059.29C794.263,1060.69 793.473,1062.6 793.473,1064.59L793.473,1090.59C793.473,1093.48 792.324,1096.25 790.279,1098.3C788.234,1100.34 785.461,1101.49 782.569,1101.49L760.177,1101.49C757.285,1101.49 754.512,1100.34 752.467,1098.3C750.422,1096.25 749.273,1093.48 749.273,1090.59L749.273,1052C749.273,1041.34 757.92,1032.69 768.586,1032.69L851.139,1032.69C861.488,1032.69 869.998,1024.53 870.435,1014.19C870.455,1013.37 870.473,1012.53 870.473,1011.69L870.473,1009.09C870.473,1000.56 868.606,992.857 864.873,985.987C861.14,979.12 855.94,973.72 849.273,969.787C842.606,965.854 835.006,963.887 826.473,963.887L760.401,963.887C754.255,963.887 749.273,968.869 749.273,975.015L749.273,1019.92C749.273,1026.97 743.554,1032.69 736.499,1032.69L736.498,1032.69C730.54,1032.69 725.554,1037.21 724.972,1043.14C723.298,1061.27 716.989,1075.45 706.073,1085.69C693.14,1097.82 674.806,1103.89 651.073,1103.89C627.34,1103.89 609.04,1097.86 596.173,1085.79C588.16,1078.27 582.642,1068.58 579.619,1056.69C578.176,1050.93 579.469,1044.82 583.124,1040.14C586.779,1035.45 592.389,1032.71 598.33,1032.71C604.655,1032.69 611.099,1032.69 615.675,1032.69C617.372,1032.69 618.999,1032.02 620.199,1030.82C621.399,1029.62 622.073,1027.99 622.073,1026.29C622.073,1016.56 624.54,1008.82 629.473,1003.09C634.406,997.357 641.606,994.487 651.073,994.487C660.54,994.487 667.773,997.357 672.773,1003.09C677.773,1008.82 680.273,1016.56 680.273,1026.29C680.273,1029.83 677.409,1032.69 673.875,1032.69L628.473,1032.69C624.938,1032.69 622.073,1035.55 622.073,1039.09C622.073,1048.82 624.54,1056.56 629.473,1062.29C634.406,1068.02 641.606,1070.89 651.073,1070.89C660.54,1070.89 667.773,1068.02 672.773,1062.29C677.773,1056.56 680.273,1048.82 680.273,1039.09C680.273,1035.55 683.138,1032.69 686.673,1032.69L703.976,1032.69C709.94,1032.69 715.569,1029.94 719.228,1025.23C722.886,1020.52 724.164,1014.38 722.69,1008.6C719.615,996.847 714.085,987.207 706.073,979.687C693.14,967.554 674.806,961.487 651.073,961.487C627.34,961.487 609.04,967.52 596.173,979.587C584.955,990.107 578.627,1004.91 577.19,1024C576.812,1028.89 572.733,1032.67 567.827,1032.67C567.826,1032.69 567.826,1032.69 567.825,1032.69C562.958,1032.69 558.912,1036.44 558.537,1041.29C557.12,1060.3 550.758,1075.1 539.473,1085.69C526.54,1097.82 508.206,1103.89 484.473,1103.89C460.74,1103.89 442.44,1097.86 429.573,1085.79C421.56,1078.27 416.042,1068.58 413.019,1056.69C411.576,1050.93 412.869,1044.82 416.524,1040.14C420.179,1035.45 425.789,1032.71 431.73,1032.71C438.055,1032.69 444.499,1032.69 449.075,1032.69C450.772,1032.69 452.399,1032.02 453.599,1030.82C454.799,1029.62 455.473,1027.99 455.473,1026.29C455.473,1016.56 457.94,1008.82 462.873,1003.09C467.806,997.357 475.006,994.487 484.473,994.487C493.94,994.487 501.173,997.357 506.173,1003.09C511.173,1008.82 513.673,1016.56 513.673,1026.29C513.673,1029.83 510.809,1032.69 507.275,1032.69L461.873,1032.69C458.338,1032.69 455.473,1035.55 455.473,1039.09C455.473,1048.82 457.94,1056.56 462.873,1062.29C467.806,1068.02 475.006,1070.89 484.473,1070.89C493.94,1070.89 501.173,1068.02 506.173,1062.29C511.173,1056.56 513.673,1048.82 513.673,1039.09C513.673,1035.55 516.538,1032.69 520.073,1032.69L537.376,1032.69C543.34,1032.69 548.969,1029.94 552.628,1025.23C556.286,1020.52 557.564,1014.38 556.09,1008.6C553.015,996.847 547.485,987.207 539.473,979.687C526.54,967.554 508.206,961.487 484.473,961.487C460.74,961.487 442.44,967.52 429.573,979.587C419.873,988.687 413.83,1000.98 411.442,1016.48C409.92,1025.81 401.864,1032.66 392.415,1032.66C367.306,1032.69 322.789,1032.69 306.273,1032.69C302.738,1032.69 299.873,1035.55 299.873,1039.09C299.873,1048.96 301.973,1056.72 306.173,1062.39C310.373,1068.06 316.806,1070.89 325.473,1070.89C334.006,1070.89 340.473,1068.69 344.873,1064.29C346.798,1062.37 348.302,1060.1 349.385,1057.48C352.404,1050.37 359.381,1045.75 367.106,1045.75C367.867,1045.69 368.637,1045.69 369.412,1045.69C376.06,1045.69 382.241,1049.11 385.774,1054.74C389.307,1060.37 389.694,1067.43 386.799,1073.41C383.899,1079.38 379.979,1084.55 374.973,1088.89C363.44,1098.89 347.14,1103.89 326.073,1103.89C302.606,1103.89 284.84,1097.89 272.773,1085.89C265.151,1078.31 259.937,1068.44 257.129,1056.29C255.825,1050.56 257.198,1044.56 260.859,1039.97C264.521,1035.38 270.073,1032.71 275.944,1032.71C282.328,1032.69 288.854,1032.69 293.475,1032.69C295.172,1032.69 296.799,1032.02 297.999,1030.82C299.199,1029.62 299.873,1027.99 299.873,1026.29C299.873,1016.29 301.973,1008.49 306.173,1002.89C310.373,997.287 316.94,994.487 325.873,994.487C333.606,994.487 339.573,996.817 343.773,1001.49C345.57,1003.49 346.982,1005.79 348.01,1008.39C350.952,1015.68 358.019,1020.44 365.872,1020.44C367.023,1020.49 368.198,1020.49 369.38,1020.49C376.028,1020.49 382.21,1017.07 385.742,1011.44C389.275,1005.81 389.662,998.747 386.767,992.767C383.772,986.617 379.698,981.278 374.473,976.787C362.606,966.587 346.473,961.487 326.073,961.487C302.606,961.487 284.84,967.487 272.773,979.487C263.695,988.517 258.032,1000.79 255.784,1016.31ZM793.473,1024.89L811.673,1024.89C816.34,1024.89 819.84,1023.69 822.173,1021.29C824.506,1018.89 825.673,1015.62 825.673,1011.49L825.673,1009.89C825.673,1005.62 824.506,1002.32 822.173,999.987C819.84,997.657 816.34,996.487 811.673,996.487L793.473,996.487L793.473,1024.89ZM1123.67,1007.89C1123.67,1004.29 1122.47,1001.29 1120.07,998.887C1117.67,996.487 1114.74,995.287 1111.27,995.287L1082.27,995.287L1082.27,1020.69L1111.27,1020.69C1114.74,1020.69 1117.67,1019.46 1120.07,1016.99C1122.47,1014.52 1123.67,1011.49 1123.67,1007.89Z"/>
    </g>
</svg>
